<svg width="362" height="101" viewBox="0 0 362 101" fill="none" xmlns="http://www.w3.org/2000/svg">
<path d="M82.0625 12.625H18.9375C15.4512 12.625 12.625 15.4512 12.625 18.9375V82.0625C12.625 85.5489 15.4512 88.375 18.9375 88.375H82.0625C85.5489 88.375 88.375 85.5489 88.375 82.0625V18.9375C88.375 15.4512 85.5489 12.625 82.0625 12.625Z" fill="#3B82F6" stroke="black" stroke-width="4"/>
<path d="M57.4437 25.25C53.6089 25.25 50.5 28.2688 50.5 31.9928C50.5 38.7358 58.7063 44.8657 63.125 46.2917C67.5438 44.8657 75.75 38.7358 75.75 31.9928C75.75 28.2688 72.6411 25.25 68.8063 25.25C66.4578 25.25 64.3816 26.382 63.125 28.115C61.8684 26.382 59.7922 25.25 57.4437 25.25Z" fill="#A855F7" stroke="white" stroke-width="4" stroke-linecap="round" stroke-linejoin="round"/>
<path d="M128.412 39.728V44.66H121.716V65H115.56V44.66H108.864V39.728H128.412ZM152.022 44.912L139.422 74.54H132.798L137.406 64.316L129.234 44.912H136.11L140.754 57.476L145.362 44.912H152.022ZM160.404 47.756C161.004 46.82 161.832 46.064 162.888 45.488C163.944 44.912 165.18 44.624 166.596 44.624C168.252 44.624 169.752 45.044 171.096 45.884C172.44 46.724 173.496 47.924 174.264 49.484C175.056 51.044 175.452 52.856 175.452 54.92C175.452 56.984 175.056 58.808 174.264 60.392C173.496 61.952 172.44 63.164 171.096 64.028C169.752 64.868 168.252 65.288 166.596 65.288C165.204 65.288 163.968 65 162.888 64.424C161.832 63.848 161.004 63.104 160.404 62.192V74.576H154.248V44.912H160.404V47.756ZM169.188 54.92C169.188 53.384 168.756 52.184 167.892 51.32C167.052 50.432 166.008 49.988 164.76 49.988C163.536 49.988 162.492 50.432 161.628 51.32C160.788 52.208 160.368 53.42 160.368 54.956C160.368 56.492 160.788 57.704 161.628 58.592C162.492 59.48 163.536 59.924 164.76 59.924C165.984 59.924 167.028 59.48 167.892 58.592C168.756 57.68 169.188 56.456 169.188 54.92ZM181.777 42.824C180.697 42.824 179.809 42.512 179.113 41.888C178.441 41.24 178.105 40.448 178.105 39.512C178.105 38.552 178.441 37.76 179.113 37.136C179.809 36.488 180.697 36.164 181.777 36.164C182.833 36.164 183.697 36.488 184.369 37.136C185.065 37.76 185.413 38.552 185.413 39.512C185.413 40.448 185.065 41.24 184.369 41.888C183.697 42.512 182.833 42.824 181.777 42.824ZM184.837 44.912V65H178.681V44.912H184.837ZM188.074 54.956C188.074 52.868 188.494 51.044 189.334 49.484C190.198 47.924 191.386 46.724 192.898 45.884C194.434 45.044 196.186 44.624 198.154 44.624C200.674 44.624 202.774 45.284 204.454 46.604C206.158 47.924 207.274 49.784 207.802 52.184H201.25C200.698 50.648 199.63 49.88 198.046 49.88C196.918 49.88 196.018 50.324 195.346 51.212C194.674 52.076 194.338 53.324 194.338 54.956C194.338 56.588 194.674 57.848 195.346 58.736C196.018 59.6 196.918 60.032 198.046 60.032C199.63 60.032 200.698 59.264 201.25 57.728H207.802C207.274 60.08 206.158 61.928 204.454 63.272C202.75 64.616 200.65 65.288 198.154 65.288C196.186 65.288 194.434 64.868 192.898 64.028C191.386 63.188 190.198 61.988 189.334 60.428C188.494 58.868 188.074 57.044 188.074 54.956ZM209.871 54.92C209.871 52.856 210.255 51.044 211.023 49.484C211.815 47.924 212.883 46.724 214.227 45.884C215.571 45.044 217.071 44.624 218.727 44.624C220.143 44.624 221.379 44.912 222.435 45.488C223.515 46.064 224.343 46.82 224.919 47.756V44.912H231.075V65H224.919V62.156C224.319 63.092 223.479 63.848 222.399 64.424C221.343 65 220.107 65.288 218.691 65.288C217.059 65.288 215.571 64.868 214.227 64.028C212.883 63.164 211.815 61.952 211.023 60.392C210.255 58.808 209.871 56.984 209.871 54.92ZM224.919 54.956C224.919 53.42 224.487 52.208 223.623 51.32C222.783 50.432 221.751 49.988 220.527 49.988C219.303 49.988 218.259 50.432 217.395 51.32C216.555 52.184 216.135 53.384 216.135 54.92C216.135 56.456 216.555 57.68 217.395 58.592C218.259 59.48 219.303 59.924 220.527 59.924C221.751 59.924 222.783 59.48 223.623 58.592C224.487 57.704 224.919 56.492 224.919 54.956ZM241.685 38.36V65H235.529V38.36H241.685ZM252.731 52.328C252.731 49.832 253.271 47.612 254.351 45.668C255.431 43.7 256.931 42.176 258.851 41.096C260.795 39.992 262.991 39.44 265.439 39.44C268.439 39.44 271.007 40.232 273.143 41.816C275.279 43.4 276.707 45.56 277.427 48.296H270.659C270.155 47.24 269.435 46.436 268.499 45.884C267.587 45.332 266.543 45.056 265.367 45.056C263.471 45.056 261.935 45.716 260.759 47.036C259.583 48.356 258.995 50.12 258.995 52.328C258.995 54.536 259.583 56.3 260.759 57.62C261.935 58.94 263.471 59.6 265.367 59.6C266.543 59.6 267.587 59.324 268.499 58.772C269.435 58.22 270.155 57.416 270.659 56.36H277.427C276.707 59.096 275.279 61.256 273.143 62.84C271.007 64.4 268.439 65.18 265.439 65.18C262.991 65.18 260.795 64.64 258.851 63.56C256.931 62.456 255.431 60.932 254.351 58.988C253.271 57.044 252.731 54.824 252.731 52.328ZM287.353 38.36V65H281.197V38.36H287.353ZM294.91 42.824C293.83 42.824 292.942 42.512 292.246 41.888C291.574 41.24 291.238 40.448 291.238 39.512C291.238 38.552 291.574 37.76 292.246 37.136C292.942 36.488 293.83 36.164 294.91 36.164C295.966 36.164 296.83 36.488 297.502 37.136C298.198 37.76 298.546 38.552 298.546 39.512C298.546 40.448 298.198 41.24 297.502 41.888C296.83 42.512 295.966 42.824 294.91 42.824ZM297.97 44.912V65H291.814V44.912H297.97ZM314.671 44.696C317.023 44.696 318.895 45.464 320.287 47C321.703 48.512 322.411 50.6 322.411 53.264V65H316.291V54.092C316.291 52.748 315.943 51.704 315.247 50.96C314.551 50.216 313.615 49.844 312.439 49.844C311.263 49.844 310.327 50.216 309.631 50.96C308.935 51.704 308.587 52.748 308.587 54.092V65H302.431V44.912H308.587V47.576C309.211 46.688 310.051 45.992 311.107 45.488C312.163 44.96 313.351 44.696 314.671 44.696ZM329.785 42.824C328.705 42.824 327.817 42.512 327.121 41.888C326.449 41.24 326.113 40.448 326.113 39.512C326.113 38.552 326.449 37.76 327.121 37.136C327.817 36.488 328.705 36.164 329.785 36.164C330.841 36.164 331.705 36.488 332.377 37.136C333.073 37.76 333.421 38.552 333.421 39.512C333.421 40.448 333.073 41.24 332.377 41.888C331.705 42.512 330.841 42.824 329.785 42.824ZM332.845 44.912V65H326.689V44.912H332.845ZM336.082 54.956C336.082 52.868 336.502 51.044 337.342 49.484C338.206 47.924 339.394 46.724 340.906 45.884C342.442 45.044 344.194 44.624 346.162 44.624C348.682 44.624 350.782 45.284 352.462 46.604C354.166 47.924 355.282 49.784 355.81 52.184H349.258C348.706 50.648 347.638 49.88 346.054 49.88C344.926 49.88 344.026 50.324 343.354 51.212C342.682 52.076 342.346 53.324 342.346 54.956C342.346 56.588 342.682 57.848 343.354 58.736C344.026 59.6 344.926 60.032 346.054 60.032C347.638 60.032 348.706 59.264 349.258 57.728H355.81C355.282 60.08 354.166 61.928 352.462 63.272C350.758 64.616 348.658 65.288 346.162 65.288C344.194 65.288 342.442 64.868 340.906 64.028C339.394 63.188 338.206 61.988 337.342 60.428C336.502 58.868 336.082 57.044 336.082 54.956Z" fill="white"/>
</svg>
